<svg viewBox="0 -5 324 35" fill="none" xmlns="http://www.w3.org/2000/svg">
<path d="M 84.288 6.88 L 84.288 9.664 Q 85.184 8.32 86.544 7.408 A 5.399 5.399 0 0 1 89.201 6.514 A 6.705 6.705 0 0 1 89.696 6.496 Q 91.467 6.496 92.651 7.248 A 4.111 4.111 0 0 1 92.928 7.44 A 5.053 5.053 0 0 1 94.533 9.523 A 6.319 6.319 0 0 1 94.72 10.016 Q 95.712 8.544 97.072 7.52 A 5.014 5.014 0 0 1 99.245 6.597 A 6.863 6.863 0 0 1 100.448 6.496 A 6.824 6.824 0 0 1 101.616 6.591 A 5.019 5.019 0 0 1 102.8 6.944 Q 103.808 7.392 104.48 8.208 Q 105.152 9.024 105.488 10.16 Q 105.824 11.296 105.824 12.672 L 105.824 23.52 L 102.944 23.52 L 102.944 12.896 A 6.094 6.094 0 0 0 102.836 11.716 Q 102.65 10.775 102.144 10.096 A 2.552 2.552 0 0 0 100.284 9.041 A 3.417 3.417 0 0 0 99.936 9.024 Q 99.2 9.024 98.528 9.312 A 5.294 5.294 0 0 0 97.401 9.975 A 5.991 5.991 0 0 0 97.248 10.096 Q 96.64 10.592 96.096 11.248 Q 95.552 11.904 95.104 12.608 L 95.104 23.52 L 92.224 23.52 L 92.224 12.896 A 6.094 6.094 0 0 0 92.116 11.716 Q 91.93 10.775 91.424 10.096 A 2.552 2.552 0 0 0 89.564 9.041 A 3.417 3.417 0 0 0 89.216 9.024 Q 88.512 9.024 87.84 9.296 A 5.395 5.395 0 0 0 86.78 9.876 A 6.191 6.191 0 0 0 86.544 10.048 A 7.61 7.61 0 0 0 85.479 11.05 A 8.475 8.475 0 0 0 85.376 11.168 Q 84.832 11.808 84.384 12.512 L 84.384 23.52 L 81.504 23.52 L 81.504 6.88 L 84.288 6.88 Z M 237.824 20.256 L 242.08 6.72 L 244.64 7.648 L 239.36 23.52 L 236.192 23.52 L 232.352 11.136 L 228.48 23.52 L 225.312 23.52 L 220.064 7.648 L 222.72 6.72 L 227.008 20.256 L 230.912 8.064 L 234.016 8.064 L 237.824 20.256 Z M 43.328 21.632 L 44.864 19.072 Q 46.016 20.032 47.456 20.64 A 7.472 7.472 0 0 0 49.175 21.123 A 10.278 10.278 0 0 0 50.816 21.248 A 8.954 8.954 0 0 0 52.271 21.137 Q 53.046 21.009 53.674 20.734 A 4.384 4.384 0 0 0 54.464 20.288 A 3.29 3.29 0 0 0 55.359 19.359 Q 55.78 18.685 55.806 17.813 A 3.877 3.877 0 0 0 55.808 17.696 A 4.141 4.141 0 0 0 55.725 16.856 A 3.582 3.582 0 0 0 55.616 16.448 Q 55.435 15.906 54.928 15.406 A 4.015 4.015 0 0 0 54.864 15.344 Q 54.457 14.961 53.814 14.577 A 10.766 10.766 0 0 0 53.296 14.288 Q 52.611 13.929 51.652 13.534 A 36.537 36.537 0 0 0 50.688 13.152 A 33.365 33.365 0 0 1 49.466 12.65 Q 48.869 12.39 48.352 12.133 A 17.612 17.612 0 0 1 47.76 11.824 Q 46.56 11.168 45.824 10.384 A 4.894 4.894 0 0 1 44.988 9.189 A 4.46 4.46 0 0 1 44.768 8.656 A 5.868 5.868 0 0 1 44.514 7.542 A 7.957 7.957 0 0 1 44.448 6.496 Q 44.448 5.312 44.944 4.256 A 5.102 5.102 0 0 1 46.237 2.566 A 5.979 5.979 0 0 1 46.416 2.416 A 6.536 6.536 0 0 1 47.733 1.604 A 8.608 8.608 0 0 1 48.816 1.184 A 9.398 9.398 0 0 1 50.442 0.835 A 12.753 12.753 0 0 1 52.064 0.736 A 16.901 16.901 0 0 1 53.888 0.83 A 12.418 12.418 0 0 1 55.616 1.136 Q 57.184 1.536 58.72 2.272 L 57.6 4.864 A 10.079 10.079 0 0 0 56.28 4.218 A 13.34 13.34 0 0 0 55.056 3.792 Q 53.6 3.36 52 3.36 A 8.867 8.867 0 0 0 50.71 3.448 Q 50.033 3.548 49.48 3.761 A 4.07 4.07 0 0 0 48.672 4.176 A 3.039 3.039 0 0 0 47.961 4.823 A 2.387 2.387 0 0 0 47.456 6.336 Q 47.456 6.976 47.632 7.472 Q 47.784 7.9 48.198 8.305 A 3.59 3.59 0 0 0 48.336 8.432 A 4.836 4.836 0 0 0 48.785 8.779 Q 49.027 8.945 49.32 9.113 A 11.069 11.069 0 0 0 49.808 9.376 A 15.017 15.017 0 0 0 50.531 9.718 Q 50.911 9.886 51.358 10.065 A 36.948 36.948 0 0 0 52.32 10.432 A 28.502 28.502 0 0 1 53.733 11.009 Q 54.425 11.315 55.012 11.627 A 15.02 15.02 0 0 1 55.456 11.872 A 10.86 10.86 0 0 1 56.445 12.51 Q 56.925 12.861 57.302 13.231 A 6.089 6.089 0 0 1 57.504 13.44 A 5.502 5.502 0 0 1 58.28 14.502 A 4.716 4.716 0 0 1 58.608 15.232 A 5.991 5.991 0 0 1 58.911 16.643 A 7.325 7.325 0 0 1 58.944 17.344 A 6.895 6.895 0 0 1 58.782 18.868 A 5.538 5.538 0 0 1 58.336 20.128 Q 57.728 21.344 56.656 22.192 Q 55.584 23.04 54.08 23.472 A 11.146 11.146 0 0 1 51.891 23.862 A 13.42 13.42 0 0 1 50.816 23.904 Q 48.48 23.904 46.56 23.28 A 12.226 12.226 0 0 1 44.843 22.582 A 9.098 9.098 0 0 1 43.328 21.632 Z M 181.92 23.52 L 173.696 1.92 L 176.672 0.768 L 183.712 20.192 L 190.784 0.864 L 193.536 1.92 L 185.344 23.52 L 181.92 23.52 Z M 141.344 8.16 L 141.344 6.88 L 143.968 6.88 L 143.968 23.136 A 13.301 13.301 0 0 1 143.878 24.726 Q 143.78 25.538 143.576 26.231 A 7.228 7.228 0 0 1 143.424 26.688 A 6.832 6.832 0 0 1 142.715 28.103 A 5.626 5.626 0 0 1 141.872 29.104 A 6.193 6.193 0 0 1 139.674 30.423 A 7.221 7.221 0 0 1 139.456 30.496 Q 138.048 30.944 136.32 30.944 Q 134.816 30.944 133.44 30.592 Q 132.064 30.24 130.976 29.536 L 132.032 27.04 A 6.58 6.58 0 0 0 133.253 27.8 A 7.916 7.916 0 0 0 133.824 28.048 A 5.41 5.41 0 0 0 134.844 28.329 Q 135.346 28.418 135.923 28.441 A 10.172 10.172 0 0 0 136.32 28.448 Q 138.592 28.448 139.888 27.264 A 3.553 3.553 0 0 0 140.807 25.86 Q 141.184 24.856 141.184 23.424 L 141.184 21.376 Q 140.544 22.144 139.344 22.832 A 5.09 5.09 0 0 1 137.686 23.419 A 6.909 6.909 0 0 1 136.48 23.52 Q 135.072 23.52 133.728 22.96 Q 132.384 22.4 131.36 21.328 Q 130.336 20.256 129.712 18.704 Q 129.088 17.152 129.088 15.136 Q 129.088 13.28 129.696 11.696 A 9.055 9.055 0 0 1 130.736 9.722 A 8.022 8.022 0 0 1 131.344 8.96 Q 132.384 7.808 133.792 7.152 Q 135.2 6.496 136.8 6.496 A 7.408 7.408 0 0 1 138.204 6.624 A 5.846 5.846 0 0 1 139.376 6.976 Q 140.512 7.456 141.344 8.16 Z M 22.72 19.872 L 23.648 22.4 A 12.02 12.02 0 0 1 22.21 23.054 A 15.326 15.326 0 0 1 20.944 23.472 A 10.749 10.749 0 0 1 19.355 23.789 Q 18.448 23.904 17.408 23.904 A 10.558 10.558 0 0 1 14.927 23.622 A 8.993 8.993 0 0 1 13.392 23.104 Q 11.584 22.304 10.272 20.816 Q 8.96 19.328 8.24 17.2 A 13.432 13.432 0 0 1 7.639 14.487 A 17.411 17.411 0 0 1 7.52 12.416 A 15.902 15.902 0 0 1 7.774 9.523 A 13.238 13.238 0 0 1 8.24 7.712 A 11.448 11.448 0 0 1 9.436 5.181 A 10.003 10.003 0 0 1 10.304 4.016 Q 11.648 2.464 13.552 1.6 Q 15.456 0.736 17.792 0.736 A 15.044 15.044 0 0 1 19.317 0.81 A 11.061 11.061 0 0 1 20.72 1.04 Q 22.016 1.344 23.168 1.888 L 22.24 4.448 Q 21.248 3.968 20.208 3.68 Q 19.314 3.433 18.149 3.398 A 13.026 13.026 0 0 0 17.76 3.392 A 6.987 6.987 0 0 0 15.497 3.754 A 6.527 6.527 0 0 0 14.912 3.984 Q 13.6 4.576 12.64 5.728 A 7.658 7.658 0 0 0 11.566 7.454 A 9.654 9.654 0 0 0 11.152 8.528 A 10.707 10.707 0 0 0 10.74 10.41 A 14.507 14.507 0 0 0 10.624 12.288 A 13.329 13.329 0 0 0 10.782 14.383 A 10.59 10.59 0 0 0 11.152 15.952 A 9.653 9.653 0 0 0 11.878 17.659 A 7.905 7.905 0 0 0 12.624 18.784 Q 13.568 19.968 14.88 20.608 Q 16.192 21.248 17.76 21.248 A 11.253 11.253 0 0 0 19.031 21.18 Q 19.823 21.09 20.48 20.88 Q 21.632 20.512 22.72 19.872 Z M 25.248 3.808 L 25.248 1.12 L 42.048 1.12 L 42.048 3.808 L 35.168 3.808 L 35.168 23.52 L 32.128 23.52 L 32.128 3.808 L 25.248 3.808 Z M 162.4 16.384 L 150.752 16.384 Q 151.02 18.561 152.205 19.848 A 4.794 4.794 0 0 0 152.384 20.032 A 4.526 4.526 0 0 0 154.824 21.252 A 6.407 6.407 0 0 0 155.936 21.344 Q 157.376 21.344 158.528 21.04 Q 159.68 20.736 160.736 20.256 L 161.408 22.72 A 11.33 11.33 0 0 1 159.866 23.31 A 14.165 14.165 0 0 1 158.816 23.584 A 13.028 13.028 0 0 1 157.187 23.834 A 17.474 17.474 0 0 1 155.584 23.904 A 9.337 9.337 0 0 1 153.729 23.727 A 7.555 7.555 0 0 1 152.352 23.312 Q 150.912 22.72 149.904 21.616 A 7.081 7.081 0 0 1 148.737 19.856 A 8.824 8.824 0 0 1 148.352 18.896 A 10.106 10.106 0 0 1 147.92 16.99 A 13.7 13.7 0 0 1 147.808 15.2 Q 147.808 13.344 148.352 11.744 A 8.864 8.864 0 0 1 149.252 9.841 A 7.729 7.729 0 0 1 149.888 8.976 Q 150.88 7.808 152.256 7.152 A 6.786 6.786 0 0 1 154.589 6.529 A 8.256 8.256 0 0 1 155.328 6.496 A 8.931 8.931 0 0 1 156.897 6.628 A 6.598 6.598 0 0 1 158.464 7.104 A 6.416 6.416 0 0 1 160.291 8.328 A 6.027 6.027 0 0 1 160.704 8.768 A 7.022 7.022 0 0 1 161.983 11.036 A 8.068 8.068 0 0 1 162.048 11.232 A 9.711 9.711 0 0 1 162.495 14.062 A 10.898 10.898 0 0 1 162.496 14.208 A 24.065 24.065 0 0 1 162.403 16.351 A 22.061 22.061 0 0 1 162.4 16.384 Z M 217.888 16.384 L 206.24 16.384 Q 206.508 18.561 207.693 19.848 A 4.794 4.794 0 0 0 207.872 20.032 A 4.526 4.526 0 0 0 210.312 21.252 A 6.407 6.407 0 0 0 211.424 21.344 Q 212.864 21.344 214.016 21.04 Q 215.168 20.736 216.224 20.256 L 216.896 22.72 A 11.33 11.33 0 0 1 215.354 23.31 A 14.165 14.165 0 0 1 214.304 23.584 A 13.028 13.028 0 0 1 212.675 23.834 A 17.474 17.474 0 0 1 211.072 23.904 A 9.337 9.337 0 0 1 209.217 23.727 A 7.555 7.555 0 0 1 207.84 23.312 Q 206.4 22.72 205.392 21.616 A 7.081 7.081 0 0 1 204.225 19.856 A 8.824 8.824 0 0 1 203.84 18.896 A 10.106 10.106 0 0 1 203.408 16.99 A 13.7 13.7 0 0 1 203.296 15.2 Q 203.296 13.344 203.84 11.744 A 8.864 8.864 0 0 1 204.74 9.841 A 7.729 7.729 0 0 1 205.376 8.976 Q 206.368 7.808 207.744 7.152 A 6.786 6.786 0 0 1 210.077 6.529 A 8.256 8.256 0 0 1 210.816 6.496 A 8.931 8.931 0 0 1 212.385 6.628 A 6.598 6.598 0 0 1 213.952 7.104 A 6.416 6.416 0 0 1 215.779 8.328 A 6.027 6.027 0 0 1 216.192 8.768 A 7.022 7.022 0 0 1 217.471 11.036 A 8.068 8.068 0 0 1 217.536 11.232 A 9.711 9.711 0 0 1 217.983 14.062 A 10.898 10.898 0 0 1 217.984 14.208 A 24.065 24.065 0 0 1 217.891 16.351 A 22.061 22.061 0 0 1 217.888 16.384 Z M 261.152 16.384 L 249.504 16.384 Q 249.772 18.561 250.957 19.848 A 4.794 4.794 0 0 0 251.136 20.032 A 4.526 4.526 0 0 0 253.576 21.252 A 6.407 6.407 0 0 0 254.688 21.344 Q 256.128 21.344 257.28 21.04 Q 258.432 20.736 259.488 20.256 L 260.16 22.72 A 11.33 11.33 0 0 1 258.618 23.31 A 14.165 14.165 0 0 1 257.568 23.584 A 13.028 13.028 0 0 1 255.939 23.834 A 17.474 17.474 0 0 1 254.336 23.904 A 9.337 9.337 0 0 1 252.481 23.727 A 7.555 7.555 0 0 1 251.104 23.312 Q 249.664 22.72 248.656 21.616 A 7.081 7.081 0 0 1 247.489 19.856 A 8.824 8.824 0 0 1 247.104 18.896 A 10.106 10.106 0 0 1 246.672 16.99 A 13.7 13.7 0 0 1 246.56 15.2 Q 246.56 13.344 247.104 11.744 A 8.864 8.864 0 0 1 248.004 9.841 A 7.729 7.729 0 0 1 248.64 8.976 Q 249.632 7.808 251.008 7.152 A 6.786 6.786 0 0 1 253.341 6.529 A 8.256 8.256 0 0 1 254.08 6.496 A 8.931 8.931 0 0 1 255.649 6.628 A 6.598 6.598 0 0 1 257.216 7.104 A 6.416 6.416 0 0 1 259.043 8.328 A 6.027 6.027 0 0 1 259.456 8.768 A 7.022 7.022 0 0 1 260.735 11.036 A 8.068 8.068 0 0 1 260.8 11.232 A 9.711 9.711 0 0 1 261.247 14.062 A 10.898 10.898 0 0 1 261.248 14.208 A 24.065 24.065 0 0 1 261.155 16.351 A 22.061 22.061 0 0 1 261.152 16.384 Z M 122.176 8.224 L 122.176 6.88 L 124.8 6.88 L 124.8 19.488 A 3.888 3.888 0 0 0 124.833 20.012 Q 124.915 20.614 125.204 20.919 A 0.949 0.949 0 0 0 125.392 21.072 Q 125.984 21.44 126.688 21.44 L 126.08 23.68 A 5.671 5.671 0 0 1 124.715 23.529 Q 122.912 23.081 122.401 21.306 A 4.349 4.349 0 0 1 122.368 21.184 Q 121.984 21.696 121.488 22.192 A 5.825 5.825 0 0 1 120.434 23.022 A 6.495 6.495 0 0 1 120.352 23.072 A 5.588 5.588 0 0 1 119.349 23.542 A 6.625 6.625 0 0 1 118.912 23.68 Q 118.112 23.904 117.152 23.904 Q 115.584 23.904 114.224 23.296 Q 112.864 22.688 111.856 21.568 Q 110.848 20.448 110.256 18.864 A 9.245 9.245 0 0 1 109.751 16.757 A 11.887 11.887 0 0 1 109.664 15.296 A 10.578 10.578 0 0 1 109.986 12.654 A 9.549 9.549 0 0 1 110.24 11.824 Q 110.816 10.208 111.856 9.024 Q 112.896 7.84 114.352 7.168 A 7.4 7.4 0 0 1 117.161 6.504 A 8.666 8.666 0 0 1 117.536 6.496 A 7.227 7.227 0 0 1 119.07 6.653 A 5.985 5.985 0 0 1 120.144 6.992 A 8.321 8.321 0 0 1 121.516 7.726 A 7.073 7.073 0 0 1 122.176 8.224 Z M 274.976 6.688 L 274.112 9.664 A 3.124 3.124 0 0 0 273.425 9.468 Q 273.108 9.414 272.747 9.409 A 5.309 5.309 0 0 0 272.672 9.408 Q 271.776 9.408 270.928 9.792 A 4.225 4.225 0 0 0 269.612 10.736 A 4.989 4.989 0 0 0 269.424 10.944 Q 268.788 11.689 268.392 12.841 A 8.334 8.334 0 0 0 268.368 12.912 A 7.326 7.326 0 0 0 268.081 14.132 Q 267.968 14.877 267.968 15.744 L 267.968 23.52 L 265.088 23.52 L 265.088 6.88 L 267.872 6.88 L 267.872 10.496 Q 268.16 9.728 268.64 8.992 Q 269.12 8.256 269.776 7.712 A 5.336 5.336 0 0 1 271.005 6.954 A 6.183 6.183 0 0 1 271.296 6.832 A 4.942 4.942 0 0 1 272.575 6.529 A 6.115 6.115 0 0 1 273.216 6.496 Q 273.696 6.496 274.16 6.544 A 6.302 6.302 0 0 1 274.545 6.595 Q 274.734 6.627 274.901 6.668 A 3.661 3.661 0 0 1 274.976 6.688 Z M 3.04 23.52 L 0 23.52 L 0 1.12 L 3.04 1.12 L 3.04 23.52 Z M 76.064 23.52 L 73.024 23.52 L 73.024 1.12 L 76.064 1.12 L 76.064 23.52 Z M 199.296 6.88 L 199.296 23.52 L 196.416 23.52 L 196.416 6.88 L 199.296 6.88 Z M 121.92 19.264 L 121.92 10.336 Q 121.056 9.728 120.016 9.36 Q 118.976 8.992 117.824 8.992 A 5.166 5.166 0 0 0 116.395 9.185 A 4.623 4.623 0 0 0 115.712 9.44 Q 114.752 9.888 114.064 10.704 A 5.566 5.566 0 0 0 113.262 11.985 A 6.881 6.881 0 0 0 112.992 12.672 A 7.496 7.496 0 0 0 112.645 14.362 A 9.159 9.159 0 0 0 112.608 15.2 Q 112.608 16.544 112.992 17.68 A 6.171 6.171 0 0 0 113.592 18.968 A 5.295 5.295 0 0 0 114.08 19.632 Q 114.784 20.448 115.728 20.896 A 4.697 4.697 0 0 0 117.584 21.34 A 5.48 5.48 0 0 0 117.792 21.344 Q 119.008 21.344 120.096 20.768 Q 121.184 20.192 121.92 19.264 Z M 141.088 19.04 L 141.088 10.336 A 8.878 8.878 0 0 0 140.135 9.762 A 11.215 11.215 0 0 0 139.392 9.408 Q 138.507 9.025 137.296 8.995 A 8.4 8.4 0 0 0 137.088 8.992 Q 136.096 8.992 135.184 9.392 Q 134.272 9.792 133.568 10.56 A 5.403 5.403 0 0 0 132.72 11.806 A 6.642 6.642 0 0 0 132.448 12.432 A 6.294 6.294 0 0 0 132.114 13.76 A 8.559 8.559 0 0 0 132.032 14.976 Q 132.032 16.352 132.448 17.456 Q 132.864 18.56 133.568 19.344 Q 134.272 20.128 135.184 20.544 Q 136.096 20.96 137.12 20.96 A 4.888 4.888 0 0 0 138.585 20.746 A 4.354 4.354 0 0 0 139.424 20.384 A 6.674 6.674 0 0 0 140.378 19.739 A 5.219 5.219 0 0 0 141.088 19.04 Z M 150.72 14.048 L 159.84 14.048 Q 159.84 12.282 159.199 11.106 A 3.975 3.975 0 0 0 158.624 10.304 A 3.996 3.996 0 0 0 156.397 9.096 A 5.886 5.886 0 0 0 155.264 8.992 A 4.54 4.54 0 0 0 153.744 9.237 A 3.91 3.91 0 0 0 152.176 10.272 A 4.716 4.716 0 0 0 151.282 11.682 Q 150.86 12.683 150.72 14.048 Z M 206.208 14.048 L 215.328 14.048 Q 215.328 12.282 214.687 11.106 A 3.975 3.975 0 0 0 214.112 10.304 A 3.996 3.996 0 0 0 211.885 9.096 A 5.886 5.886 0 0 0 210.752 8.992 A 4.54 4.54 0 0 0 209.232 9.237 A 3.91 3.91 0 0 0 207.664 10.272 A 4.716 4.716 0 0 0 206.77 11.682 Q 206.348 12.683 206.208 14.048 Z M 249.472 14.048 L 258.592 14.048 Q 258.592 12.282 257.951 11.106 A 3.975 3.975 0 0 0 257.376 10.304 A 3.996 3.996 0 0 0 255.149 9.096 A 5.886 5.886 0 0 0 254.016 8.992 A 4.54 4.54 0 0 0 252.496 9.237 A 3.91 3.91 0 0 0 250.928 10.272 A 4.716 4.716 0 0 0 250.034 11.682 Q 249.612 12.683 249.472 14.048 Z M 196.451 3.459 A 1.939 1.939 0 0 0 197.856 4.032 A 2.644 2.644 0 0 0 198.386 3.982 A 1.812 1.812 0 0 0 199.328 3.488 A 1.788 1.788 0 0 0 199.799 2.646 A 2.556 2.556 0 0 0 199.872 2.016 A 2.325 2.325 0 0 0 199.872 1.99 A 1.939 1.939 0 0 0 199.28 0.592 A 2.366 2.366 0 0 0 199.261 0.574 A 1.939 1.939 0 0 0 197.856 0 A 2.644 2.644 0 0 0 197.326 0.051 A 1.812 1.812 0 0 0 196.384 0.544 A 1.788 1.788 0 0 0 195.913 1.386 A 2.556 2.556 0 0 0 195.84 2.016 A 2.325 2.325 0 0 0 195.84 2.042 A 1.939 1.939 0 0 0 196.432 3.44 A 2.366 2.366 0 0 0 196.451 3.459 Z" fill="white"/>
</svg>
